<svg width="318" height="508" viewBox="0 0 318 508" fill="none" xmlns="http://www.w3.org/2000/svg">
<path d="M128 442L131.2 474H154.8V442H128Z" fill="#AEB1B4"/>
<path d="M158.8 474H191.6L194.8 442H158.8V474Z" fill="#AEB1B4"/>
<path d="M126 119.6C126 110.8 130 67.6 138.4 36.4C130.4 66 126 107.2 126 119.6Z" fill="#FD1919"/>
<path d="M205.2 403.2C205.2 404.8 205.6 406.4 205.6 408C205.6 406.4 205.2 404.8 205.2 403.2Z" fill="#FD1919"/>
<path d="M204.4 398.8C204.8 400 204.8 401.2 205.2 402.4C204.8 400.8 204.8 400 204.4 398.8Z" fill="#FD1919"/>
<path d="M122.8 369.6V168C114.8 172.8 111.6 206 109.2 228.8L109.6 236.8C105.2 272.4 86 294.4 77.6 302C74.8 304.4 70.4 308.4 64.8 313.2C44.4 330 6.8 361.6 6.8 376V411.2L111.2 423.2L108.8 408C108.8 394.8 114.8 380.8 122.8 369.6Z" fill="#FF0000"/>
<path d="M141.6 88.8C141.6 88.8 142 88.8 142 88.4C142.8 88 143.6 87.2 144.4 86.8C144.4 86.8 144.4 86.8 144.8 86.8C148.4 84.8 152.4 84 156.4 83.6C158 83.6 159.2 83.6 160.8 83.6C172.4 83.6 182.4 89.2 188 98.8C187.2 91.6 186 82.8 184.8 74C184.8 73.2 184.4 72.4 184.4 72C179.2 40.4 170.4 6 159.6 6C145.6 6 134.8 64.8 131.2 100C134 95.6 137.6 91.6 141.6 88.8ZM142 46H166C167.2 46 168 46.8 168 48C168 49.2 167.2 50 166 50H142C140.8 50 140 49.2 140 48C140 46.8 140.8 46 142 46Z" fill="#FF0000"/>
<path d="M138.8 35.2C138.8 34.8 139.2 34.4 139.2 34C139.2 34.4 138.8 34.8 138.8 35.2Z" fill="black"/>
<path d="M2.8 376C2.8 375.2 2.8 374.4 3.2 373.6C3.2 374.4 2.8 375.2 2.8 376Z" fill="black"/>
<path d="M253.6 312.4C248.4 308 244.4 304.4 242 302C233.6 294.4 212.8 272.4 208.4 236.8C205.6 212.8 198.8 173.6 190.8 168V369.6C198.8 377.2 206.8 391.6 206.8 408V423.2L310.8 411.2V376C310.8 361.6 274 329.6 253.6 312.4Z" fill="#FF0000"/>
<path d="M154.8 422H115.2V438H125.6H126C126.4 438 126.4 438 126.8 438H154.8V422Z" fill="#7D8B95"/>
<path d="M202.8 422H158.8V438H202.8V422Z" fill="#7D8B95"/>
<path d="M141.6 88.8C137.6 91.6 134 95.6 131.6 100C131.6 100 131.6 100 131.6 100.4C133.2 98 134.8 95.6 136.4 93.6C138 91.6 139.6 90 141.6 88.8Z" fill="#FD1919"/>
<path d="M156.4 83.2C152.4 83.6 148.4 84.8 144.8 86.8C148.4 84.8 152.4 84 156.4 83.2Z" fill="#FD1919"/>
<path d="M204 403.2C204 402.8 204.8 402.4 204.4 402.4C204.4 401.2 204.4 400 204 398.8C201.6 387.6 195.2 376.8 190.8 371.2C190.4 371.6 190.4 370.4 189.6 370.4H158.8V422.4H202.8V408.4C202.8 406.4 204 404.8 204 403.2Z" fill="#AEB1B4"/>
<path d="M154.8 370H130C129.6 370 129.2 371.2 128.8 370.8C120.4 381.6 115.2 393.2 115.2 405.2L114.8 421.6H154.4V370H154.8Z" fill="#AEB1B4"/>
<path d="M186.8 366V165.2V119.6C186.8 100.4 176 86 160 86H160.4C152.4 86 144.8 89.2 139.2 95.6C133.2 102 128.4 110 128.4 119.2L122.8 165.2V366H186.8Z" fill="#CDEEF9"/>
<path d="M144.4 87.2C143.6 87.6 142.8 88 142 88.8C142.8 88 143.6 87.6 144.4 87.2Z" fill="black"/>
<path d="M127.6 108.4C128.4 105.6 129.6 102.8 131.2 100.4C131.2 100.4 131.2 100.4 131.2 100C130 102.4 128.4 105.2 127.6 108.4Z" fill="black"/>
<path d="M204.8 444.4H111.6C109.6 444.4 107.6 442.8 107.6 440.4L107.2 408C107.2 394 112.4 379.6 120.8 368.8V330C120.8 327.6 122.4 326 124.8 326C127.2 326 128.8 327.6 128.8 330V370C128.8 370.8 128.4 372 128 372.4C120 382 115.2 395.2 115.2 407.6L115.6 436H200.8V407.2C200.8 392 191.2 378.8 185.6 372C184.8 371.2 184.8 370.4 184.8 369.6V119.2C184.8 101.2 172.8 86.8 157.6 86.8C150 86.8 142.8 90 137.6 96C132 102 128.8 110.4 128.8 119.2V298C128.8 300.4 127.2 302 124.8 302C122.4 302 120.8 300.4 120.8 298V119.6C120.8 108.8 124.8 98.8 131.6 91.2C138.4 83.6 148 79.2 157.6 79.2C177.2 79.2 192.8 96.8 192.8 119.6V368.8C199.2 376.8 208.8 391.2 208.8 408V440.8C208.8 442 208.4 442.8 207.6 443.6C206.8 444.4 206 444.4 204.8 444.4Z" fill="black"/>
<path d="M162.8 52H138.8C136.4 52 134.8 50.4 134.8 48C134.8 45.6 136.4 44 138.8 44H162.8C165.2 44 166.8 45.6 166.8 48C166.8 50.4 165.2 52 162.8 52Z" fill="black"/>
<path d="M186.8 372H126.8C124.4 372 122.8 370.4 122.8 368C122.8 365.6 124.4 364 126.8 364H186.8C189.2 364 190.8 365.6 190.8 368C190.8 370.4 189.2 372 186.8 372Z" fill="black"/>
<path d="M157.6 508C155.2 508 153.6 506.4 153.6 504V372.8C153.6 370.4 155.2 368.8 157.6 368.8C160 368.8 161.6 370.4 161.6 372.8V504C161.6 506.4 159.6 508 157.6 508Z" fill="black"/>
<path d="M108.4 429.2H108L4.4 416.8C2.4 416.4 0.800003 414.8 0.800003 412.8V376C0.800003 360.4 30.4 334 61.2 308C66.4 303.6 70.8 300 73.6 297.6C81.2 290.4 99.6 270.4 103.6 236C104 231.2 104.8 226 105.2 220.4C108 192 110.8 167.2 121.2 162V119.6C121.2 110 130.4 0 157.2 0C184 0 193.2 110 193.2 119.6V162.4C204 167.6 209.6 194 214.4 236C218.4 267.6 235.6 288.4 246 297.6C248.4 300 252.4 303.2 257.2 307.2C287.6 333.2 317.2 359.6 317.2 375.6V412.8C317.2 414.8 315.6 416.4 313.6 416.8L208.4 429.2C206 429.6 204.4 428 204 425.6C203.6 423.6 205.2 421.6 207.6 421.2L309.6 409.2V375.6C309.6 362 270.8 328.8 252.4 313.2C247.2 308.8 243.6 305.6 240.8 303.2C230 293.2 210.8 270.8 206.8 236.8C200 181.2 193.6 169.2 189.2 169.2C187.2 169.2 185.2 167.2 185.2 165.2V119.6C185.2 90.8 170.8 8 157.2 8C143.6 8 129.2 90.8 129.2 119.6V165.2C129.2 166.4 128.8 167.2 128 168C127.2 168.8 126.4 169.2 125.2 169.2C118.8 169.2 115.2 203.2 113.2 221.2C112.8 226.4 112 231.6 111.6 236.8C107.2 273.6 87.6 295.6 79.2 303.2C76.4 305.6 72 309.2 66.8 314C48 329.6 9.6 362.4 9.6 375.6V408.8L109.6 420.8C111.6 421.2 113.2 423.2 113.2 425.2C112 428 110.4 429.2 108.4 429.2Z" fill="black"/>
<path d="M193.6 480H129.6C127.6 480 126 478.4 125.6 476.4L122 442.4C121.6 440.4 123.2 438.4 125.6 438C127.6 438 129.6 439.2 130 441.6L133.2 472H190L193.2 441.2C193.6 439.2 195.2 437.6 197.6 437.6C199.6 438 201.2 439.6 201.2 442L197.6 476.4C197.2 478.4 195.6 480 193.6 480Z" fill="black"/>
</svg>
